<?xml version="1.0" encoding="UTF-8" standalone="no"?>
<!-- Generator: Adobe Illustrator 16.0.0, SVG Export Plug-In . SVG Version: 6.00 Build 0)  -->

<svg
   xmlns:dc="http://purl.org/dc/elements/1.1/"
   xmlns:cc="http://creativecommons.org/ns#"
   xmlns:rdf="http://www.w3.org/1999/02/22-rdf-syntax-ns#"
   xmlns:svg="http://www.w3.org/2000/svg"
   xmlns="http://www.w3.org/2000/svg"
   xmlns:sodipodi="http://sodipodi.sourceforge.net/DTD/sodipodi-0.dtd"
   xmlns:inkscape="http://www.inkscape.org/namespaces/inkscape"
   version="1.1"
   id="Capa_1"
   x="0px"
   y="0px"
   width="512"
   height="512"
   viewBox="0 0 512 512.00001"
   xml:space="preserve"
   inkscape:version="0.48.2 r9819"
   sodipodi:docname="bag53.svg"><metadata
   id="metadata47"><rdf:RDF><cc:Work
       rdf:about=""><dc:format>image/svg+xml</dc:format><dc:type
         rdf:resource="http://purl.org/dc/dcmitype/StillImage" /><dc:title></dc:title></cc:Work></rdf:RDF></metadata><defs
   id="defs45" /><sodipodi:namedview
   pagecolor="#ffffff"
   bordercolor="#666666"
   borderopacity="1"
   objecttolerance="10"
   gridtolerance="10"
   guidetolerance="10"
   inkscape:pageopacity="0"
   inkscape:pageshadow="2"
   inkscape:window-width="1440"
   inkscape:window-height="785"
   id="namedview43"
   showgrid="false"
   inkscape:zoom="0.41719405"
   inkscape:cx="-132.20255"
   inkscape:cy="199.9995"
   inkscape:window-x="0"
   inkscape:window-y="0"
   inkscape:window-maximized="1"
   inkscape:current-layer="Capa_1" />
<g
   id="g3796"><path
     transform="translate(-5e-6,0)"
     d="m 511.86313,256.91589 a 255.08411,255.08411 0 1 1 -510.1682142,0 255.08411,255.08411 0 1 1 510.1682142,0 z"
     sodipodi:ry="255.08411"
     sodipodi:rx="255.08411"
     sodipodi:cy="256.91589"
     sodipodi:cx="256.77902"
     id="path3024"
     style="opacity:1;fill:#e6ff67;fill-opacity:1;stroke:none"
     sodipodi:type="arc" /><path
     sodipodi:type="arc"
     style="opacity:0.82920036;fill:#b2d920;fill-opacity:1;stroke:none"
     id="path3794"
     sodipodi:cx="256.77902"
     sodipodi:cy="256.91589"
     sodipodi:rx="255.08411"
     sodipodi:ry="255.08411"
     d="m 511.86313,256.91589 a 255.08411,255.08411 0 1 1 -510.1682142,0 255.08411,255.08411 0 1 1 510.1682142,0 z"
     transform="matrix(0.92012747,0,0,0.92012747,19.730568,19.604634)" /><g
     style="fill:#e6ff67;fill-opacity:1;stroke:#9ad128;stroke-opacity:1;stroke-width:9.88731448000000057;stroke-miterlimit:4;stroke-dasharray:none;stroke-linejoin:round"
     transform="matrix(0.79890249,0,0,0.79890249,96.219933,96.220249)"
     id="g3">
	<g
   style="fill:#e6ff67;fill-opacity:1;stroke:#9ad128;stroke-opacity:1;stroke-width:9.88731448000000057;stroke-miterlimit:4;stroke-dasharray:none;stroke-linejoin:round"
   id="g5">
		<g
   style="fill:#e6ff67;fill-opacity:1;stroke:#9ad128;stroke-opacity:1;stroke-width:9.88731448000000057;stroke-miterlimit:4;stroke-dasharray:none;stroke-linejoin:round"
   id="g7">
			<path
   style="fill:#e6ff67;fill-opacity:1;stroke:#9ad128;stroke-opacity:1;stroke-width:9.88731448000000057;stroke-miterlimit:4;stroke-dasharray:none;stroke-linejoin:round"
   inkscape:connector-curvature="0"
   id="path9"
   d="M 345.954,275.809 C 410.721,145.352 396.591,44.157 348.283,10.948 319.249,-9.01 283.012,-1.296 253.361,30.99 h -9.592 c 0.014,-0.335 0.025,-0.671 0.025,-1.01 0,-14.152 -11.473,-25.625 -25.625,-25.625 h -36.341 c -14.152,0 -25.625,11.473 -25.625,25.625 0,0.339 0.014,0.675 0.027,1.01 h -9.592 C 116.989,-1.298 80.751,-9.013 51.716,10.947 3.412,44.154 -10.721,145.339 54.032,275.782 l -2.197,43.863 c -1.041,20.837 6.605,41.455 20.983,56.57 14.382,15.115 34.591,23.783 55.452,23.783 h 144.59 l 0.094,-0.01 c 41.634,-0.658 75.307,-34.729 75.307,-76.519 0,-1.812 -0.065,-3.638 -0.192,-5.428 l -2.115,-42.232 z M 62.65,103.688 57.212,212.301 C 41.434,168.06 37.87,133.969 38.285,110.885 38.93,74.886 49.873,46.137 67.556,33.981 80.387,25.16 95.517,26.19 110.725,36.419 83.7,47.192 64.193,72.919 62.65,103.688 z m 209.236,251.384 h -11.95 c -3.646,-22.097 -22.83,-38.953 -45.959,-38.953 h -27.953 c -23.129,0 -42.313,16.855 -45.959,38.953 H 128.27 c -8.612,0 -16.959,-3.581 -22.896,-9.822 -5.938,-6.241 -9.096,-14.755 -8.665,-23.358 l 10.814,-215.957 c 0.844,-16.833 14.706,-30.021 31.561,-30.021 h 121.821 c 16.854,0 30.718,13.186 31.562,30.02 l 10.744,214.607 0.034,0.554 c 0.059,0.775 0.088,1.575 0.088,2.377 0,17.374 -14.094,31.517 -31.447,31.6 z m 65.449,-251.383 c -1.539,-30.767 -21.044,-56.492 -48.062,-67.267 15.208,-10.232 30.34,-11.264 43.172,-2.441 17.683,12.156 28.625,40.905 29.271,76.904 0.415,23.09 -3.148,57.193 -18.938,101.453 l -5.443,-108.649 z" />
			<path
   style="fill:#e6ff67;fill-opacity:1;stroke:#9ad128;stroke-opacity:1;stroke-width:9.88731448000000057;stroke-miterlimit:4;stroke-dasharray:none;stroke-linejoin:round"
   inkscape:connector-curvature="0"
   id="path11"
   d="m 232.583,100.381 h -65.129 c -21.823,0 -39.773,17.072 -40.865,38.867 l -5.776,115.461 c -0.165,3.296 1.034,6.515 3.314,8.899 2.267,2.369 5.401,3.709 8.68,3.709 0.021,0 0.044,0 0.065,0 l 134.389,-0.724 c 3.278,-0.018 6.405,-1.375 8.659,-3.755 2.254,-2.382 3.438,-5.581 3.271,-8.854 l -5.742,-114.738 c -1.093,-21.793 -19.044,-38.865 -40.866,-38.865 z m 12.377,76.704 h -89.919 c -5.918,0 -10.717,-4.797 -10.717,-10.715 0,-5.918 4.799,-10.716 10.717,-10.716 h 89.919 c 5.919,0 10.718,4.798 10.718,10.716 0,5.918 -4.799,10.715 -10.718,10.715 z" />
		</g>
	</g>
</g></g>
<g
   id="g13"
   transform="translate(0,112.00101)">
</g>
<g
   id="g15"
   transform="translate(0,112.00101)">
</g>
<g
   id="g17"
   transform="translate(0,112.00101)">
</g>
<g
   id="g19"
   transform="translate(0,112.00101)">
</g>
<g
   id="g21"
   transform="translate(0,112.00101)">
</g>
<g
   id="g23"
   transform="translate(0,112.00101)">
</g>
<g
   id="g25"
   transform="translate(0,112.00101)">
</g>
<g
   id="g27"
   transform="translate(0,112.00101)">
</g>
<g
   id="g29"
   transform="translate(0,112.00101)">
</g>
<g
   id="g31"
   transform="translate(0,112.00101)">
</g>
<g
   id="g33"
   transform="translate(0,112.00101)">
</g>
<g
   id="g35"
   transform="translate(0,112.00101)">
</g>
<g
   id="g37"
   transform="translate(0,112.00101)">
</g>
<g
   id="g39"
   transform="translate(0,112.00101)">
</g>
<g
   id="g41"
   transform="translate(0,112.00101)">
</g>
</svg>